<svg width="14" height="26" viewBox="0 0 14 26" fill="none" xmlns="http://www.w3.org/2000/svg">
<path d="M12.0909 5.90909V19.5C12.0909 22.1118 9.81273 24.2273 7 24.2273C4.18727 24.2273 1.90909 22.1118 1.90909 19.5V4.72727C1.90909 3.09636 3.33455 1.77273 5.09091 1.77273C6.84727 1.77273 8.27273 3.09636 8.27273 4.72727V17.1364C8.27273 17.7864 7.7 18.3182 7 18.3182C6.3 18.3182 5.72727 17.7864 5.72727 17.1364V5.90909H3.81818V17.1364C3.81818 18.7673 5.24364 20.0909 7 20.0909C8.75636 20.0909 10.1818 18.7673 10.1818 17.1364V4.72727C10.1818 2.11545 7.90364 0 5.09091 0C2.27818 0 0 2.11545 0 4.72727V19.5C0 23.0927 3.13091 26 7 26C10.8691 26 14 23.0927 14 19.5V5.90909H12.0909Z" fill="#fff"/>
</svg>
