<svg width="40" height="25" viewBox="0 0 34 34" fill="none" xmlns="http://www.w3.org/2000/svg">
<g clip-path="url(#clip0_18_91)">
<path d="M16.9999 2.83331C11.5174 2.83331 7.08325 7.26748 7.08325 12.75C7.08325 20.1875 16.9999 31.1666 16.9999 31.1666C16.9999 31.1666 26.9166 20.1875 26.9166 12.75C26.9166 7.26748 22.4824 2.83331 16.9999 2.83331ZM9.91659 12.75C9.91659 8.83998 13.0899 5.66665 16.9999 5.66665C20.9099 5.66665 24.0833 8.83998 24.0833 12.75C24.0833 16.83 20.0033 22.9358 16.9999 26.7466C14.0533 22.9641 9.91659 16.7875 9.91659 12.75Z" fill="#CCCCCC"/>
<path d="M16.9999 16.2916C18.9559 16.2916 20.5416 14.706 20.5416 12.75C20.5416 10.794 18.9559 9.20831 16.9999 9.20831C15.0439 9.20831 13.4583 10.794 13.4583 12.75C13.4583 14.706 15.0439 16.2916 16.9999 16.2916Z" fill="#CCCCCC"/>
</g>
<defs>
<clipPath id="clip0_18_91">
<rect width="34" height="34" fill="white"/>
</clipPath>
</defs>
</svg>
