<svg width="26" height="27" viewBox="0 0 26 27" fill="none" xmlns="http://www.w3.org/2000/svg">
<path d="M18.582 16.9811H17.4077L16.9914 16.5643C18.4483 14.8045 19.3253 12.5197 19.3253 10.0343C19.3253 4.49228 14.9994 0 9.66266 0C4.3259 0 0 4.49228 0 10.0343C0 15.5763 4.3259 20.0686 9.66266 20.0686C12.056 20.0686 14.2561 19.1578 15.9508 17.6449L16.3522 18.0772V19.2967L23.785 27L26 24.6998L18.582 16.9811ZM9.66266 16.9811C5.96112 16.9811 2.97313 13.8782 2.97313 10.0343C2.97313 6.19039 5.96112 3.08748 9.66266 3.08748C13.3642 3.08748 16.3522 6.19039 16.3522 10.0343C16.3522 13.8782 13.3642 16.9811 9.66266 16.9811Z" fill="#fff"/>
</svg>
