<svg width="17" height="19" viewBox="0 0 27 27" fill="none" xmlns="http://www.w3.org/2000/svg">
<path d="M9.45 0V1.41176H2.7C1.22437 1.41176 0 2.69215 0 4.23529V9.88235V15.5294V21.1765C0 22.7196 1.22437 24 2.7 24H24.3C25.7756 24 27 22.7196 27 21.1765V15.5294V9.88235V4.23529C27 2.69215 25.7756 1.41176 24.3 1.41176H17.55V0H9.45ZM2.7 4.23529H24.3V9.88235V15.5294H2.7V9.88235V4.23529ZM13.5 9.88235C13.142 9.88235 12.7986 10.0311 12.5454 10.2958C12.2922 10.5606 12.15 10.9197 12.15 11.2941C12.15 11.6685 12.2922 12.0276 12.5454 12.2924C12.7986 12.5571 13.142 12.7059 13.5 12.7059C13.858 12.7059 14.2014 12.5571 14.4546 12.2924C14.7078 12.0276 14.85 11.6685 14.85 11.2941C14.85 10.9197 14.7078 10.5606 14.4546 10.2958C14.2014 10.0311 13.858 9.88235 13.5 9.88235ZM2.7 18.3529H24.3V21.1765H2.7V18.3529Z" fill="#CCCCCC"/>
</svg>
