<svg width="34" height="34" viewBox="0 0 34 34" fill="none" xmlns="http://www.w3.org/2000/svg">
<path d="M17 0C7.616 0 0 7.616 0 17C0 26.384 7.616 34 17 34C26.384 34 34 26.384 34 17C34 7.616 26.384 0 17 0ZM8.619 27.676C9.35 26.146 13.804 24.65 17 24.65C20.196 24.65 24.667 26.146 25.381 27.676C23.069 29.512 20.162 30.6 17 30.6C13.838 30.6 10.931 29.512 8.619 27.676ZM27.812 25.211C25.381 22.253 19.482 21.25 17 21.25C14.518 21.25 8.619 22.253 6.188 25.211C4.454 22.933 3.4 20.094 3.4 17C3.4 9.503 9.503 3.4 17 3.4C24.497 3.4 30.6 9.503 30.6 17C30.6 20.094 29.546 22.933 27.812 25.211ZM17 6.8C13.702 6.8 11.05 9.452 11.05 12.75C11.05 16.048 13.702 18.7 17 18.7C20.298 18.7 22.95 16.048 22.95 12.75C22.95 9.452 20.298 6.8 17 6.8ZM17 15.3C15.589 15.3 14.45 14.161 14.45 12.75C14.45 11.339 15.589 10.2 17 10.2C18.411 10.2 19.55 11.339 19.55 12.75C19.55 14.161 18.411 15.3 17 15.3Z" fill="white"/>
</svg>
